<mxfile host="app.diagrams.net" modified="2023-04-10T18:34:26.985Z" agent="Mozilla/5.0 (Windows NT 10.0; Win64; x64) AppleWebKit/537.36 (KHTML, like Gecko) Chrome/112.0.0.0 Safari/537.36" etag="OVtiUVeCasBrL3QAL7m3" version="21.1.2" type="github">
  <diagram name="Page-1" id="1agqPhk3OaSYFVhubBkM">
    <mxGraphModel dx="1647" dy="1061" grid="1" gridSize="10" guides="1" tooltips="1" connect="1" arrows="1" fold="1" page="0" pageScale="1" pageWidth="850" pageHeight="1100" math="0" shadow="0">
      <root>
        <mxCell id="0" />
        <mxCell id="1" parent="0" />
        <mxCell id="A6Xo1_0jGJrXyV0FaNRn-18" style="edgeStyle=orthogonalEdgeStyle;rounded=0;orthogonalLoop=1;jettySize=auto;html=1;exitX=0.5;exitY=1;exitDx=0;exitDy=0;exitPerimeter=0;entryX=0.5;entryY=0;entryDx=0;entryDy=0;" edge="1" parent="1" source="A6Xo1_0jGJrXyV0FaNRn-1" target="A6Xo1_0jGJrXyV0FaNRn-10">
          <mxGeometry relative="1" as="geometry" />
        </mxCell>
        <mxCell id="A6Xo1_0jGJrXyV0FaNRn-1" value="Data Subset 1" style="shape=cylinder3;whiteSpace=wrap;html=1;boundedLbl=1;backgroundOutline=1;size=15;fillColor=#ffe6cc;strokeColor=#d79b00;" vertex="1" parent="1">
          <mxGeometry x="-160" y="-40" width="60" height="80" as="geometry" />
        </mxCell>
        <mxCell id="A6Xo1_0jGJrXyV0FaNRn-19" style="edgeStyle=orthogonalEdgeStyle;rounded=0;orthogonalLoop=1;jettySize=auto;html=1;exitX=0.5;exitY=1;exitDx=0;exitDy=0;exitPerimeter=0;entryX=0.5;entryY=0;entryDx=0;entryDy=0;" edge="1" parent="1" source="A6Xo1_0jGJrXyV0FaNRn-2" target="A6Xo1_0jGJrXyV0FaNRn-11">
          <mxGeometry relative="1" as="geometry" />
        </mxCell>
        <mxCell id="A6Xo1_0jGJrXyV0FaNRn-2" value="Data Subset 2" style="shape=cylinder3;whiteSpace=wrap;html=1;boundedLbl=1;backgroundOutline=1;size=15;fillColor=#ffe6cc;strokeColor=#d79b00;" vertex="1" parent="1">
          <mxGeometry x="-50" y="-40" width="60" height="80" as="geometry" />
        </mxCell>
        <mxCell id="A6Xo1_0jGJrXyV0FaNRn-20" style="edgeStyle=orthogonalEdgeStyle;rounded=0;orthogonalLoop=1;jettySize=auto;html=1;exitX=0.5;exitY=1;exitDx=0;exitDy=0;exitPerimeter=0;" edge="1" parent="1" source="A6Xo1_0jGJrXyV0FaNRn-6" target="A6Xo1_0jGJrXyV0FaNRn-12">
          <mxGeometry relative="1" as="geometry" />
        </mxCell>
        <mxCell id="A6Xo1_0jGJrXyV0FaNRn-6" value="Data Subset 3" style="shape=cylinder3;whiteSpace=wrap;html=1;boundedLbl=1;backgroundOutline=1;size=15;fillColor=#ffe6cc;strokeColor=#d79b00;" vertex="1" parent="1">
          <mxGeometry x="60" y="-40" width="60" height="80" as="geometry" />
        </mxCell>
        <mxCell id="A6Xo1_0jGJrXyV0FaNRn-21" style="edgeStyle=orthogonalEdgeStyle;rounded=0;orthogonalLoop=1;jettySize=auto;html=1;exitX=0.5;exitY=1;exitDx=0;exitDy=0;exitPerimeter=0;entryX=0.5;entryY=0;entryDx=0;entryDy=0;" edge="1" parent="1" source="A6Xo1_0jGJrXyV0FaNRn-7" target="A6Xo1_0jGJrXyV0FaNRn-13">
          <mxGeometry relative="1" as="geometry" />
        </mxCell>
        <mxCell id="A6Xo1_0jGJrXyV0FaNRn-7" value="Data Subset 4" style="shape=cylinder3;whiteSpace=wrap;html=1;boundedLbl=1;backgroundOutline=1;size=15;fillColor=#ffe6cc;strokeColor=#d79b00;" vertex="1" parent="1">
          <mxGeometry x="170" y="-40" width="60" height="80" as="geometry" />
        </mxCell>
        <mxCell id="A6Xo1_0jGJrXyV0FaNRn-22" style="edgeStyle=orthogonalEdgeStyle;rounded=0;orthogonalLoop=1;jettySize=auto;html=1;exitX=0.5;exitY=1;exitDx=0;exitDy=0;exitPerimeter=0;entryX=0.5;entryY=0;entryDx=0;entryDy=0;" edge="1" parent="1" source="A6Xo1_0jGJrXyV0FaNRn-8" target="A6Xo1_0jGJrXyV0FaNRn-16">
          <mxGeometry relative="1" as="geometry" />
        </mxCell>
        <mxCell id="A6Xo1_0jGJrXyV0FaNRn-8" value="Data Subset 5" style="shape=cylinder3;whiteSpace=wrap;html=1;boundedLbl=1;backgroundOutline=1;size=15;fillColor=#ffe6cc;strokeColor=#d79b00;" vertex="1" parent="1">
          <mxGeometry x="280" y="-40" width="60" height="80" as="geometry" />
        </mxCell>
        <mxCell id="A6Xo1_0jGJrXyV0FaNRn-23" style="edgeStyle=orthogonalEdgeStyle;rounded=0;orthogonalLoop=1;jettySize=auto;html=1;exitX=0.5;exitY=1;exitDx=0;exitDy=0;exitPerimeter=0;entryX=0.5;entryY=0;entryDx=0;entryDy=0;" edge="1" parent="1" source="A6Xo1_0jGJrXyV0FaNRn-9" target="A6Xo1_0jGJrXyV0FaNRn-17">
          <mxGeometry relative="1" as="geometry" />
        </mxCell>
        <mxCell id="A6Xo1_0jGJrXyV0FaNRn-9" value="Data Subset 6" style="shape=cylinder3;whiteSpace=wrap;html=1;boundedLbl=1;backgroundOutline=1;size=15;fillColor=#ffe6cc;strokeColor=#d79b00;" vertex="1" parent="1">
          <mxGeometry x="390" y="-40" width="60" height="80" as="geometry" />
        </mxCell>
        <mxCell id="A6Xo1_0jGJrXyV0FaNRn-10" value="Neural Network 1" style="whiteSpace=wrap;html=1;aspect=fixed;" vertex="1" parent="1">
          <mxGeometry x="-160" y="90" width="60" height="60" as="geometry" />
        </mxCell>
        <mxCell id="A6Xo1_0jGJrXyV0FaNRn-11" value="Neural Network 2" style="whiteSpace=wrap;html=1;aspect=fixed;" vertex="1" parent="1">
          <mxGeometry x="-50" y="90" width="60" height="60" as="geometry" />
        </mxCell>
        <mxCell id="A6Xo1_0jGJrXyV0FaNRn-12" value="Neural Network 3" style="whiteSpace=wrap;html=1;aspect=fixed;" vertex="1" parent="1">
          <mxGeometry x="60" y="90" width="60" height="60" as="geometry" />
        </mxCell>
        <mxCell id="A6Xo1_0jGJrXyV0FaNRn-13" value="Neural Network 4" style="whiteSpace=wrap;html=1;aspect=fixed;" vertex="1" parent="1">
          <mxGeometry x="170" y="90" width="60" height="60" as="geometry" />
        </mxCell>
        <mxCell id="A6Xo1_0jGJrXyV0FaNRn-16" value="Neural Network 5" style="whiteSpace=wrap;html=1;aspect=fixed;" vertex="1" parent="1">
          <mxGeometry x="280" y="90" width="60" height="60" as="geometry" />
        </mxCell>
        <mxCell id="A6Xo1_0jGJrXyV0FaNRn-17" value="Neural Network 6" style="whiteSpace=wrap;html=1;aspect=fixed;" vertex="1" parent="1">
          <mxGeometry x="390" y="90" width="60" height="60" as="geometry" />
        </mxCell>
      </root>
    </mxGraphModel>
  </diagram>
</mxfile>
